HIERARCHY
ROOT Hips
{
	OFFSET -3.958830 18.904000 13.208200
	CHANNELS 6 Xposition Yposition Zposition Zrotation Yrotation Xrotation 
	JOINT LHipJoint
	{
		OFFSET 0.000000 0.000000 0.000000
		CHANNELS 3 Zrotation Yrotation Xrotation
		JOINT LeftUpLeg
		{
			OFFSET 1.800000 -1.400000 0.085000
			CHANNELS 3 Zrotation Yrotation Xrotation
			JOINT LeftLeg
			{
				OFFSET 2.215000 -6.000000 0.000000
				CHANNELS 3 Zrotation Yrotation Xrotation
				JOINT LeftFoot
				{
					OFFSET 2.500000 -6.900000 0.000000
					CHANNELS 3 Zrotation Yrotation Xrotation
					JOINT LeftToeBase
					{
						OFFSET 0.200000 -0.500000 1.950000
						CHANNELS 3 Zrotation Yrotation Xrotation
						End Site
						{
							OFFSET 0.000000 0.000000 0.000000
						}
					}
				}
			}
		}
	}
	JOINT RHipJoint
	{
		OFFSET 0.000000 0.000000 0.000000
		CHANNELS 3 Zrotation Yrotation Xrotation
		JOINT RightUpLeg
		{
			OFFSET -1.800000 -1.400000 0.085000
			CHANNELS 3 Zrotation Yrotation Xrotation
			JOINT RightLeg
			{
				OFFSET -2.215000 -6.000000 0.000000
				CHANNELS 3 Zrotation Yrotation Xrotation
				JOINT RightFoot
				{
					OFFSET -2.500000 -6.900000 0.000000
					CHANNELS 3 Zrotation Yrotation Xrotation
					JOINT RightToeBase
					{
						OFFSET -0.200000 -0.500000 1.950000
						CHANNELS 3 Zrotation Yrotation Xrotation
						End Site
						{
							OFFSET 0.000000 0.000000 0.000000
						}
					}
				}
			}
		}
	}
	JOINT LowerBack
	{
		OFFSET 0.000000 0.000000 0.000000
		CHANNELS 3 Zrotation Yrotation Xrotation
		JOINT Spine
		{
			OFFSET -0.087000 1.940000 -0.288900
			CHANNELS 3 Zrotation Yrotation Xrotation
			JOINT Spine1
			{
				OFFSET 0.000000 1.950000 0.060000
				CHANNELS 3 Zrotation Yrotation Xrotation
				JOINT Neck
				{
					OFFSET 0.000000 0.000000 0.000000
					CHANNELS 3 Zrotation Yrotation Xrotation
					JOINT Neck1
					{
						OFFSET 0.000000 1.600000 0.340000
						CHANNELS 3 Zrotation Yrotation Xrotation
						JOINT Head
						{
							OFFSET 0.000000 1.667000 -0.240000
							CHANNELS 3 Zrotation Yrotation Xrotation
							End Site
							{
								OFFSET 0.000000 0.000000 0.000000
							}
						}
					}
				}
				JOINT LeftShoulder
				{
					OFFSET 0.000000 0.000000 0.000000
					CHANNELS 3 Zrotation Yrotation Xrotation
					JOINT LeftArm
					{
						OFFSET 2.700000 1.550000 -0.730000
						CHANNELS 3 Zrotation Yrotation Xrotation
						JOINT LeftForeArm
						{
							OFFSET 5.450000 0.000000 0.000000
							CHANNELS 3 Zrotation Yrotation Xrotation
							JOINT LeftHand
							{
								OFFSET 3.450000 0.000000 0.000000
								CHANNELS 3 Zrotation Yrotation Xrotation
								JOINT LeftHandIndex1
								{
									OFFSET 0.750000 0.000000 0.000000
									CHANNELS 3 Zrotation Yrotation Xrotation
									End Site
									{
										OFFSET 0.000000 0.000000 0.000000
									}
								}
							}
						}
					}
				}
				JOINT RightShoulder
				{
					OFFSET 0.000000 0.000000 0.000000
					CHANNELS 3 Zrotation Yrotation Xrotation
					JOINT RightArm
					{
						OFFSET -2.700000 1.550000 -0.730000
						CHANNELS 3 Zrotation Yrotation Xrotation
						JOINT RightForeArm
						{
							OFFSET -5.450000 0.000000 0.000000
							CHANNELS 3 Zrotation Yrotation Xrotation
							JOINT RightHand
							{
								OFFSET -3.450000 0.000000 0.000000
								CHANNELS 3 Zrotation Yrotation Xrotation
								JOINT RightHandIndex1
								{
									OFFSET -0.750000 0.000000 0.000000
									CHANNELS 3 Zrotation Yrotation Xrotation
									End Site
									{
										OFFSET 0.000000 0.000000 0.000000
									}
								}
							}
						}
					}
				}
			}
		}
	}
}
MOTION
Frames: 13
Frame Time: 0.016667
-1.784260 15.879210 2.186710 -15.114388 -14.790679 -18.711030 -16.297079 16.558118 2.273197 15.488281 -3.022327 -13.597577 34.320903 -6.915834 46.864568 1.300613 9.221044 1.415424 -0.021260 -0.059170 0.037470 17.207495 -8.999235 2.044519 -2.631226 4.452290 -13.984888 4.621600 -9.862912 45.521288 -0.659409 -6.756433 2.046661 -0.042420 0.047840 0.035760 -0.212190 -10.504827 -8.283388 1.848050 3.289649 40.948807 15.640047 9.728810 11.522620 1.137004 2.336623 -17.009776 -0.713080 0.992370 34.386630 -2.527090 2.738750 -0.241000 34.967854 -5.062828 3.112772 41.946920 10.039473 -4.318472 33.301177 -7.899683 -0.600597 -5.733179 3.473052 0.018060 0.079250 -0.033090 0.004500 -34.841884 6.569457 8.752131 -33.865549 -26.155323 0.803105 -35.670763 9.995794 -1.215004 3.639286 -1.955205 -0.039210 -0.028010 -0.015110 -0.034790 
-1.796740 15.772610 2.162700 -14.755704 -14.417256 -19.196921 -16.219590 16.481562 2.353854 14.369164 -3.394691 -13.978680 35.780739 -7.940854 48.070941 1.422652 9.552059 1.330846 -0.042220 -0.082420 0.014560 17.281559 -9.003243 2.060384 -3.342837 4.802822 -15.178367 4.551048 -10.214033 47.174261 -0.708560 -6.993204 1.967981 -0.068050 0.051080 0.029860 -0.439657 -10.617432 -8.253241 1.480267 2.151919 43.289905 13.982538 9.235277 10.138677 1.055046 1.691685 -17.521741 -2.230365 2.544029 33.435723 -2.233440 3.452820 -0.555370 35.648306 -4.168743 4.876643 42.451216 14.233062 -2.377581 30.509386 -2.565265 -0.018306 -5.808418 3.131698 0.026870 0.067600 -0.034540 0.003050 -35.198888 6.392165 9.013511 -34.920979 -27.017929 0.978505 -33.740954 4.651398 -0.308813 3.771083 -1.795624 -0.038880 -0.030630 -0.004340 -0.030760 
-1.811930 15.683730 2.138260 -14.666256 -12.441952 -19.358988 -16.160572 16.341885 2.492510 13.140182 -3.955105 -15.161575 37.642539 -9.087885 47.855616 1.499990 9.726031 1.300785 -0.083720 -0.137990 -0.016830 17.330484 -8.986323 2.120209 -4.590894 4.976883 -16.333396 5.922605 -11.300802 48.207302 -0.755715 -7.299919 1.865531 -0.105460 0.065130 0.019400 -0.668995 -10.470277 -8.245968 2.198160 1.468386 45.138921 12.513797 9.484664 7.856654 0.950141 1.530625 -17.710893 -2.836622 2.600837 32.849277 -2.179360 3.016970 -0.022580 35.812205 -3.375912 5.550272 43.701347 17.054516 -0.551807 27.768458 -0.195288 0.256989 -5.725656 2.885985 0.032060 0.063800 -0.049790 -0.000890 -34.984587 6.000947 9.107561 -35.814044 -29.434069 1.964854 -33.110434 2.790449 0.191198 3.825003 -1.699567 -0.051520 -0.030190 0.012040 -0.026460 
-1.799010 15.597770 2.130300 -14.667937 -11.335797 -19.105332 -16.084101 16.193568 2.605374 12.368900 -4.405835 -16.062743 39.462317 -10.080669 47.561131 1.577936 9.897011 1.267143 -0.111600 -0.173860 -0.033090 17.395131 -8.899748 2.288853 -6.218201 5.390982 -18.260915 7.848672 -12.949591 49.993029 -0.857694 -7.820349 1.689593 -0.134160 0.068080 0.009230 -0.924751 -10.181036 -8.235540 3.604563 0.033667 46.726319 10.536880 8.495124 5.263999 0.942248 0.859348 -17.591642 -4.228190 3.082674 32.168790 -2.546960 3.145850 0.191600 35.240806 -2.591286 5.867562 44.764914 19.771714 1.293255 26.221234 0.143551 0.445261 -5.575369 2.783632 0.035360 0.057970 -0.056350 -0.004780 -34.666166 5.819187 8.986171 -36.502817 -31.249492 2.801129 -33.311497 2.336162 0.455929 3.840437 -1.667934 -0.057300 -0.030630 0.019590 -0.024880 
-1.780340 15.520520 2.136010 -14.212235 -10.033109 -19.421410 -15.948373 16.020843 2.659767 11.643169 -4.643961 -16.144398 39.902079 -10.410964 47.603936 1.622649 9.933321 1.267677 -0.136520 -0.204240 -0.054290 17.485615 -8.966363 2.505987 -8.939551 5.452617 -19.759192 9.905168 -15.049184 52.177824 -1.005430 -8.527833 1.455586 -0.164970 0.066380 -0.004800 -1.282605 -9.419427 -8.144634 4.915432 -1.876610 47.511070 8.217296 6.116035 3.257784 1.033912 -0.442981 -16.889883 -6.233817 3.412142 32.112211 -2.396980 3.057980 0.826180 33.273275 -3.142609 6.326940 47.214627 22.125058 2.987690 26.502644 0.748462 0.630057 -5.366099 2.709174 0.044920 0.043280 -0.056050 -0.003230 -33.623900 7.378645 9.152132 -37.711186 -32.712789 3.357241 -33.537832 0.816343 0.810043 3.840141 -1.593781 -0.059460 -0.032380 0.022310 -0.018870 
-1.763730 15.451970 2.135140 -13.743560 -9.482096 -20.016080 -15.840710 15.859365 2.661040 11.204524 -4.805565 -16.117801 39.545816 -10.516648 48.842448 1.678060 10.068105 1.241269 -0.156920 -0.228270 -0.076200 17.575790 -9.031741 2.659524 -10.654529 5.571281 -20.883234 10.440727 -16.448876 54.891862 -1.145679 -9.150541 1.262049 -0.187200 0.073970 -0.024380 -1.573586 -8.851433 -8.076155 5.591352 -3.253024 49.024649 6.389846 4.514521 1.807152 0.818908 -0.981542 -16.905277 -7.037568 3.752710 31.505212 -1.376230 2.727350 0.934460 33.149060 -3.599664 7.138542 48.332750 24.674798 3.777127 25.955756 2.530484 0.730393 -5.295531 2.561956 0.055680 0.026820 -0.060160 0.001200 -33.448435 8.026107 9.572190 -37.618578 -33.751196 3.318214 -33.060411 -1.391575 1.157218 3.906151 -1.493313 -0.067950 -0.022410 0.024600 -0.011260 
-1.751900 15.404560 2.133170 -13.327347 -8.962283 -20.135570 -15.777464 15.694961 2.693803 10.639770 -4.965585 -16.606770 39.633312 -10.756723 49.763151 1.733345 10.220448 1.208395 -0.176450 -0.253120 -0.096100 17.637278 -9.064894 2.766461 -11.935523 5.677929 -21.788497 10.833737 -17.283402 56.357032 -1.217821 -9.508257 1.151589 -0.206200 0.083510 -0.035410 -1.761414 -8.410396 -8.060464 6.283961 -3.857285 49.776566 5.178486 4.029093 0.619775 0.741656 -1.440221 -16.969519 -7.657956 3.662801 30.923343 -0.843180 2.199230 1.185140 33.285725 -3.672839 7.591971 48.874091 26.003073 4.110286 26.171690 4.056630 0.838256 -5.287896 2.468287 0.058920 0.019230 -0.067580 0.004790 -33.509152 8.313699 9.819038 -37.904917 -34.833304 3.607543 -32.614480 -2.593277 1.396310 3.939895 -1.426821 -0.074510 -0.018080 0.028170 -0.003520 
-1.733440 15.366510 2.136890 -13.004318 -9.114704 -20.333358 -15.711046 15.584867 2.676720 10.495483 -4.863259 -16.727599 39.332660 -10.723876 50.883693 1.762078 10.362520 1.169236 -0.170270 -0.241920 -0.106700 17.699130 -9.116491 2.851337 -13.055831 5.835391 -22.362756 11.166974 -17.808009 57.253408 -1.265170 -9.743399 1.075840 -0.196010 0.093450 -0.040530 -1.936416 -8.042968 -8.025109 7.262245 -4.373549 50.335824 3.960694 3.507054 0.064828 0.526134 -1.938943 -16.817209 -8.434166 3.930597 30.250420 -0.436810 1.934490 0.788000 33.544907 -3.129810 7.638951 49.224715 26.731321 4.482787 25.717615 4.881483 0.859403 -5.252413 2.422840 0.055790 0.017770 -0.074030 0.012980 -33.479092 7.971956 9.589980 -38.850988 -34.963884 3.949684 -32.589615 -3.311074 1.521165 3.943216 -1.399615 -0.076500 -0.007380 0.028770 0.003730 
-1.711550 15.341260 2.146630 -12.476303 -9.309515 -20.541194 -15.639239 15.488860 2.661487 9.945862 -4.746566 -16.486738 39.093881 -10.659392 51.418780 1.767646 10.425926 1.153698 -0.161510 -0.226370 -0.116310 17.759456 -9.220346 2.908263 -14.178126 5.834355 -22.821071 11.059883 -18.039004 58.028313 -1.290221 -9.906678 1.017059 -0.179200 0.108650 -0.037400 -2.112319 -7.648622 -7.966528 8.418089 -4.775886 50.794695 2.545271 3.056417 -0.390803 0.370415 -2.436387 -16.597225 -9.185507 4.121229 29.461606 -0.306330 1.672520 0.186140 33.935139 -2.293868 7.533493 49.407550 26.850245 4.589440 24.900504 6.047845 0.809597 -5.225031 2.358676 0.046240 0.024360 -0.082030 0.019920 -33.692189 7.208598 9.175054 -40.445193 -35.031098 4.546254 -31.778927 -4.646151 1.688443 3.931198 -1.339053 -0.076320 0.005650 0.034660 0.011740 
-1.704370 15.322520 2.145880 -11.946123 -8.270021 -20.555478 -15.561322 15.283510 2.709314 8.988510 -4.970273 -16.698594 39.409817 -10.907968 51.197906 1.743187 10.444934 1.143692 -0.165150 -0.241780 -0.100490 17.822759 -9.361147 2.993801 -15.593939 5.561159 -23.294980 11.649747 -18.518106 57.866116 -1.296111 -10.003744 0.970913 -0.178910 0.109390 -0.029890 -2.325088 -7.037787 -7.926723 8.739788 -5.701991 50.622531 1.277175 1.719190 -0.635071 0.695320 -3.171110 -16.105912 -9.819045 4.410021 29.059918 -1.133740 2.516480 -0.089090 33.032049 -1.811868 7.256069 50.824757 27.300506 5.269835 26.113587 6.644538 0.976480 -5.166235 2.375393 0.058720 0.035390 -0.085560 0.005400 -33.587068 7.010744 9.077517 -39.933954 -34.992449 4.287156 -32.111887 -6.206965 1.931347 3.962630 -1.289517 -0.089600 0.008200 0.048250 -0.008290 
-1.694800 15.299940 2.151600 -11.411341 -7.616570 -20.581166 -15.490842 15.075235 2.729936 8.151603 -5.109364 -16.781454 39.518541 -11.088020 51.490602 1.744317 10.517280 1.115505 -0.157460 -0.238670 -0.092030 17.886866 -9.467903 3.111726 -17.015982 5.416890 -24.057564 12.304774 -19.137220 58.066112 -1.324231 -10.175785 0.895704 -0.171230 0.108900 -0.014010 -2.519621 -6.458921 -7.911775 9.615539 -6.237045 50.293582 -0.161345 0.962998 -0.611815 0.832606 -3.497627 -15.794679 -9.890972 4.328419 28.884262 -1.319110 2.660800 -0.405890 32.658412 -1.079420 6.896378 50.954759 27.283736 5.485629 27.102034 7.282968 1.118852 -5.164120 2.405114 0.059780 0.041910 -0.085340 -0.001690 -33.637502 6.210987 8.937734 -39.733840 -35.047464 4.518873 -31.539142 -6.565365 1.967065 3.977303 -1.265419 -0.086700 0.001850 0.057160 -0.014770 
-1.679540 15.294950 2.150490 -11.034047 -6.663171 -21.362739 -15.417634 14.903749 2.732179 7.452595 -5.072196 -16.392820 39.818871 -11.273924 51.505083 1.746668 10.557290 1.097218 -0.148550 -0.234060 -0.073510 17.938357 -9.646803 3.179687 -18.480848 5.190057 -23.604607 13.195055 -19.731438 57.785463 -1.345698 -10.283911 0.849105 -0.165520 0.092850 -0.018240 -2.704331 -5.847607 -7.881344 11.352209 -6.434700 50.106114 -1.899283 0.753922 0.440729 1.114532 -3.610153 -15.277132 -9.706145 3.835536 29.912864 -1.346290 2.491180 -0.276290 31.612603 -1.058276 6.600567 51.030810 27.071704 5.268820 28.233132 9.127220 1.339918 -5.146644 2.372266 0.070720 0.034690 -0.079710 -0.012080 -33.403310 6.113327 9.030267 -39.895500 -35.320848 4.603401 -31.144171 -7.742862 2.126371 3.994650 -1.194954 -0.088970 0.001120 0.056380 -0.026880 
-1.665740 15.289170 2.167700 -10.839296 -6.307150 -21.545583 -15.391125 14.796685 2.749100 7.147150 -5.036108 -16.550977 40.086035 -11.463121 51.981552 1.768044 10.686501 1.055580 -0.154520 -0.255330 -0.062430 17.958781 -9.724426 3.212790 -19.186082 5.160494 -23.341413 13.678822 -19.975767 57.492804 -1.348658 -10.314123 0.827792 -0.176380 0.084030 -0.012430 -2.772846 -5.529020 -7.898392 12.521256 -6.234324 49.290318 -2.604884 1.137556 1.075371 1.401396 -3.620482 -14.980209 -9.534322 3.156429 30.867910 -1.654390 2.134910 0.166340 30.556252 -1.329993 6.353815 51.495739 26.827905 5.324263 29.429761 9.995204 1.558291 -5.120233 2.384360 0.083880 0.031480 -0.076020 -0.022840 -33.011053 6.543961 9.162748 -40.623531 -35.374009 4.780341 -31.282661 -8.209936 2.257319 3.971669 -1.163069 -0.092800 -0.005270 0.063460 -0.037640 
